<mxfile host="app.diagrams.net" modified="2023-11-29T15:49:52.139Z" agent="Mozilla/5.0 (X11; Ubuntu; Linux x86_64; rv:120.0) Gecko/20100101 Firefox/120.0" etag="gvoCeUO6spMz6Q7cpTPf" version="22.1.4" type="github">
  <diagram name="Page-1" id="2YBvvXClWsGukQMizWep">
    <mxGraphModel dx="1354" dy="615" grid="1" gridSize="10" guides="1" tooltips="1" connect="1" arrows="1" fold="1" page="1" pageScale="1" pageWidth="850" pageHeight="1100" math="0" shadow="0">
      <root>
        <mxCell id="0" />
        <mxCell id="1" parent="0" />
        <mxCell id="hXXFAV3YxGBH0Ydvt_z7-1" value=":Object" style="shape=umlLifeline;perimeter=lifelinePerimeter;whiteSpace=wrap;html=1;container=0;dropTarget=0;collapsible=0;recursiveResize=0;outlineConnect=0;portConstraint=eastwest;newEdgeStyle={&quot;edgeStyle&quot;:&quot;elbowEdgeStyle&quot;,&quot;elbow&quot;:&quot;vertical&quot;,&quot;curved&quot;:0,&quot;rounded&quot;:0};" vertex="1" parent="1">
          <mxGeometry x="1090" y="40" width="100" height="300" as="geometry" />
        </mxCell>
        <mxCell id="hXXFAV3YxGBH0Ydvt_z7-2" value="" style="html=1;points=[];perimeter=orthogonalPerimeter;outlineConnect=0;targetShapes=umlLifeline;portConstraint=eastwest;newEdgeStyle={&quot;edgeStyle&quot;:&quot;elbowEdgeStyle&quot;,&quot;elbow&quot;:&quot;vertical&quot;,&quot;curved&quot;:0,&quot;rounded&quot;:0};" vertex="1" parent="hXXFAV3YxGBH0Ydvt_z7-1">
          <mxGeometry x="45" y="80" width="10" height="40" as="geometry" />
        </mxCell>
        <mxCell id="hXXFAV3YxGBH0Ydvt_z7-3" value="dispatch" style="html=1;verticalAlign=bottom;endArrow=block;edgeStyle=elbowEdgeStyle;elbow=vertical;curved=0;rounded=0;" edge="1" parent="1">
          <mxGeometry relative="1" as="geometry">
            <mxPoint x="1045" y="390" as="sourcePoint" />
            <Array as="points">
              <mxPoint x="1130" y="390" />
            </Array>
            <mxPoint x="1215" y="390" as="targetPoint" />
          </mxGeometry>
        </mxCell>
        <mxCell id="hXXFAV3YxGBH0Ydvt_z7-4" value="callback" style="html=1;verticalAlign=bottom;endArrow=block;edgeStyle=elbowEdgeStyle;elbow=vertical;curved=0;rounded=0;" edge="1" parent="1">
          <mxGeometry relative="1" as="geometry">
            <mxPoint x="1212.5" y="420" as="sourcePoint" />
            <Array as="points">
              <mxPoint x="1137.5" y="420" />
            </Array>
            <mxPoint x="1047.5" y="420" as="targetPoint" />
          </mxGeometry>
        </mxCell>
        <mxCell id="hXXFAV3YxGBH0Ydvt_z7-5" value="return" style="html=1;verticalAlign=bottom;endArrow=open;dashed=1;endSize=8;edgeStyle=elbowEdgeStyle;elbow=vertical;curved=0;rounded=0;" edge="1" parent="1">
          <mxGeometry relative="1" as="geometry">
            <mxPoint x="1212.5" y="450" as="targetPoint" />
            <Array as="points">
              <mxPoint x="1127.5" y="450" />
            </Array>
            <mxPoint x="1047.5" y="450" as="sourcePoint" />
          </mxGeometry>
        </mxCell>
        <mxCell id="hXXFAV3YxGBH0Ydvt_z7-6" value="return" style="html=1;verticalAlign=bottom;endArrow=open;dashed=1;endSize=8;edgeStyle=elbowEdgeStyle;elbow=vertical;curved=0;rounded=0;" edge="1" parent="1">
          <mxGeometry relative="1" as="geometry">
            <mxPoint x="1040" y="480" as="targetPoint" />
            <Array as="points">
              <mxPoint x="1135" y="480" />
            </Array>
            <mxPoint x="1210" y="480" as="sourcePoint" />
          </mxGeometry>
        </mxCell>
        <mxCell id="hXXFAV3YxGBH0Ydvt_z7-7" value="Igrač" style="shape=umlActor;verticalLabelPosition=bottom;verticalAlign=top;html=1;" vertex="1" parent="1">
          <mxGeometry x="40" y="40" width="30" height="60" as="geometry" />
        </mxCell>
        <mxCell id="hXXFAV3YxGBH0Ydvt_z7-11" value="" style="endArrow=none;dashed=1;html=1;rounded=0;" edge="1" parent="1">
          <mxGeometry width="50" height="50" relative="1" as="geometry">
            <mxPoint x="1240" y="659.25" as="sourcePoint" />
            <mxPoint x="1240" y="138.25" as="targetPoint" />
          </mxGeometry>
        </mxCell>
        <mxCell id="hXXFAV3YxGBH0Ydvt_z7-12" value="" style="rounded=0;whiteSpace=wrap;html=1;rotation=90;" vertex="1" parent="1">
          <mxGeometry x="-257.8" y="437.81" width="625.62" height="10" as="geometry" />
        </mxCell>
        <mxCell id="hXXFAV3YxGBH0Ydvt_z7-16" value=":Glavni meni" style="shape=umlLifeline;perimeter=lifelinePerimeter;whiteSpace=wrap;html=1;container=0;dropTarget=0;collapsible=0;recursiveResize=0;outlineConnect=0;portConstraint=eastwest;newEdgeStyle={&quot;edgeStyle&quot;:&quot;elbowEdgeStyle&quot;,&quot;elbow&quot;:&quot;vertical&quot;,&quot;curved&quot;:0,&quot;rounded&quot;:0};" vertex="1" parent="1">
          <mxGeometry x="200" y="40" width="100" height="720" as="geometry" />
        </mxCell>
        <mxCell id="hXXFAV3YxGBH0Ydvt_z7-17" value="" style="html=1;points=[];perimeter=orthogonalPerimeter;outlineConnect=0;targetShapes=umlLifeline;portConstraint=eastwest;newEdgeStyle={&quot;edgeStyle&quot;:&quot;elbowEdgeStyle&quot;,&quot;elbow&quot;:&quot;vertical&quot;,&quot;curved&quot;:0,&quot;rounded&quot;:0};" vertex="1" parent="hXXFAV3YxGBH0Ydvt_z7-16">
          <mxGeometry x="45" y="100" width="10" height="60" as="geometry" />
        </mxCell>
        <mxCell id="hXXFAV3YxGBH0Ydvt_z7-18" value=":Aplikacija" style="shape=umlLifeline;perimeter=lifelinePerimeter;whiteSpace=wrap;html=1;container=0;dropTarget=0;collapsible=0;recursiveResize=0;outlineConnect=0;portConstraint=eastwest;newEdgeStyle={&quot;edgeStyle&quot;:&quot;elbowEdgeStyle&quot;,&quot;elbow&quot;:&quot;vertical&quot;,&quot;curved&quot;:0,&quot;rounded&quot;:0};size=40;" vertex="1" parent="1">
          <mxGeometry x="400" y="40" width="100" height="720" as="geometry" />
        </mxCell>
        <mxCell id="hXXFAV3YxGBH0Ydvt_z7-19" value="" style="html=1;points=[];perimeter=orthogonalPerimeter;outlineConnect=0;targetShapes=umlLifeline;portConstraint=eastwest;newEdgeStyle={&quot;edgeStyle&quot;:&quot;elbowEdgeStyle&quot;,&quot;elbow&quot;:&quot;vertical&quot;,&quot;curved&quot;:0,&quot;rounded&quot;:0};" vertex="1" parent="hXXFAV3YxGBH0Ydvt_z7-18">
          <mxGeometry x="45" y="120" width="10" height="600" as="geometry" />
        </mxCell>
        <mxCell id="hXXFAV3YxGBH0Ydvt_z7-20" value=":Nivo" style="shape=umlLifeline;perimeter=lifelinePerimeter;whiteSpace=wrap;html=1;container=0;dropTarget=0;collapsible=0;recursiveResize=0;outlineConnect=0;portConstraint=eastwest;newEdgeStyle={&quot;edgeStyle&quot;:&quot;elbowEdgeStyle&quot;,&quot;elbow&quot;:&quot;vertical&quot;,&quot;curved&quot;:0,&quot;rounded&quot;:0};" vertex="1" parent="1">
          <mxGeometry x="640" y="40" width="100" height="720" as="geometry" />
        </mxCell>
        <mxCell id="hXXFAV3YxGBH0Ydvt_z7-21" value="" style="html=1;points=[];perimeter=orthogonalPerimeter;outlineConnect=0;targetShapes=umlLifeline;portConstraint=eastwest;newEdgeStyle={&quot;edgeStyle&quot;:&quot;elbowEdgeStyle&quot;,&quot;elbow&quot;:&quot;vertical&quot;,&quot;curved&quot;:0,&quot;rounded&quot;:0};" vertex="1" parent="hXXFAV3YxGBH0Ydvt_z7-20">
          <mxGeometry x="45" y="80" width="10" height="40" as="geometry" />
        </mxCell>
        <mxCell id="hXXFAV3YxGBH0Ydvt_z7-22" value="1. Započni igru" style="html=1;verticalAlign=bottom;endArrow=block;edgeStyle=elbowEdgeStyle;elbow=vertical;curved=0;rounded=0;" edge="1" parent="1" target="hXXFAV3YxGBH0Ydvt_z7-16">
          <mxGeometry relative="1" as="geometry">
            <mxPoint x="60" y="140" as="sourcePoint" />
            <Array as="points">
              <mxPoint x="145" y="140" />
            </Array>
            <mxPoint x="230" y="140" as="targetPoint" />
          </mxGeometry>
        </mxCell>
        <mxCell id="hXXFAV3YxGBH0Ydvt_z7-23" value="&lt;div&gt;2. Otvara se prozor za&lt;/div&gt;&lt;div&gt;&amp;nbsp;pokretanjeigrice&lt;br&gt;&lt;/div&gt;" style="html=1;verticalAlign=bottom;endArrow=block;edgeStyle=elbowEdgeStyle;elbow=vertical;curved=0;rounded=0;" edge="1" parent="1" source="hXXFAV3YxGBH0Ydvt_z7-17">
          <mxGeometry x="0.0051" relative="1" as="geometry">
            <mxPoint x="260" y="160" as="sourcePoint" />
            <Array as="points">
              <mxPoint x="365" y="160" />
            </Array>
            <mxPoint x="450" y="160" as="targetPoint" />
            <mxPoint as="offset" />
          </mxGeometry>
        </mxCell>
      </root>
    </mxGraphModel>
  </diagram>
</mxfile>
